<svg id="Layer_1" data-name="Layer 1" xmlns="http://www.w3.org/2000/svg" xmlns:xlink="http://www.w3.org/1999/xlink" viewBox="0 0 722.8 522.37"><defs><clipPath id="clip-path" transform="translate(-30.52 -40.55)"><rect width="841.89" height="595.28" style="fill:none"/></clipPath><clipPath id="clip-path-7" transform="translate(-30.52 -40.55)"><rect x="2" width="841.89" height="595.28" style="fill:none"/></clipPath></defs><title>Logos 6 clubes</title><polygon points="384.13 116.85 407.42 116.85 407.42 121.04 389.71 121.04 389.71 133.9 406.07 133.9 406.07 138.04 389.71 138.04 389.71 155.55 384.13 155.55 384.13 116.85" style="fill:#fff"/><g style="clip-path:url(#clip-path)"><path d="M450.32,160.51c.07,1.72-1.35,3.1-3.59,3.1a3.19,3.19,0,0,1-3.4-3.1,3.27,3.27,0,0,1,3.53-3.16,3.18,3.18,0,0,1,3.46,3.16M444,168.32h5.65v27.79H444Z" transform="translate(-30.52 -40.55)" style="fill:#fff"/><path d="M459.05,175.84c0-2.87-.07-5.23-.26-7.52h5l.32,4.59h.12c1.55-2.64,5.14-5.23,10.27-5.23,4.3,0,11,2.3,11,11.83v16.6h-5.64v-16c0-4.48-1.86-8.21-7.19-8.21a7.92,7.92,0,0,0-7.57,5.16,6.52,6.52,0,0,0-.39,2.36v16.71h-5.64Z" transform="translate(-30.52 -40.55)" style="fill:#fff"/><path d="M511.86,196.11l-.45-3.51h-.19a12.05,12.05,0,0,1-9.5,4.14c-6.29,0-9.5-4-9.5-8,0-6.72,6.68-10.4,18.68-10.34v-.57c0-2.3-.71-6.43-7.06-6.43a16.88,16.88,0,0,0-8.09,2.06l-1.28-3.33a21.06,21.06,0,0,1,10.2-2.47c9.5,0,11.81,5.8,11.81,11.37v10.4a35.57,35.57,0,0,0,.51,6.66ZM511,181.92c-6.16-.11-13.15.86-13.15,6.26,0,3.28,2.44,4.83,5.33,4.83,4,0,6.61-2.3,7.5-4.65a4.66,4.66,0,0,0,.32-1.61Z" transform="translate(-30.52 -40.55)" style="fill:#fff"/><path d="M525.59,175.84c0-2.87-.06-5.23-.26-7.52h5l.32,4.59h.13c1.54-2.64,5.13-5.23,10.26-5.23,4.3,0,11,2.3,11,11.83v16.6h-5.65v-16c0-4.48-1.86-8.21-7.19-8.21a7.92,7.92,0,0,0-7.57,5.16,6.75,6.75,0,0,0-.38,2.36v16.71h-5.65Z" transform="translate(-30.52 -40.55)" style="fill:#fff"/><path d="M557.67,193.18l14.06-16.37c1.34-1.49,2.63-2.81,4-4.3v-.12H559v-4.08h23.68l-.07,3.16-13.86,16.14c-1.28,1.55-2.57,2.93-4,4.36v.12h18.16v4H557.67Z" transform="translate(-30.52 -40.55)" style="fill:#fff"/><path d="M605.86,196.11l-.44-3.51h-.2a12,12,0,0,1-9.49,4.14c-6.29,0-9.5-4-9.5-8,0-6.72,6.67-10.4,18.67-10.34v-.57c0-2.3-.7-6.43-7.06-6.43a16.87,16.87,0,0,0-8.08,2.06l-1.28-3.33a21,21,0,0,1,10.2-2.47c9.5,0,11.8,5.8,11.8,11.37v10.4a34.69,34.69,0,0,0,.52,6.66ZM605,181.92c-6.16-.11-13.15.86-13.15,6.26,0,3.28,2.43,4.83,5.32,4.83a7.72,7.72,0,0,0,7.51-4.65,4.9,4.9,0,0,0,.32-1.61Z" transform="translate(-30.52 -40.55)" style="fill:#fff"/><path d="M618.83,190.94a16,16,0,0,0,7.44,2c4.11,0,6-1.84,6-4.14s-1.6-3.73-5.77-5.11c-5.59-1.78-8.22-4.53-8.22-7.86,0-4.48,4-8.16,10.72-8.16a17,17,0,0,1,7.64,1.73l-1.42,3.67a13.1,13.1,0,0,0-6.35-1.61c-3.34,0-5.2,1.73-5.2,3.79,0,2.3,1.86,3.33,5.91,4.71,5.39,1.84,8.15,4.25,8.15,8.38,0,4.89-4.24,8.33-11.62,8.33a19.47,19.47,0,0,1-8.72-1.89Z" transform="translate(-30.52 -40.55)" style="fill:#fff"/></g><text transform="matrix(-1, 0, 0, 1.02, 709.96, 330.39)" style="font-size:60.3129997253418px;fill:#fff;font-family:MyriadPro-Regular, Myriad Pro"><tspan style="letter-spacing:-0.009990202199258717em">C</tspan><tspan x="34.38" y="0">omunicación</tspan></text><g style="clip-path:url(#clip-path)"><path d="M320.93,562.92H753.31V498.28H320.93a32.32,32.32,0,1,0,0,64.64" transform="translate(-30.52 -40.55)" style="fill:#79318b"/></g><path d="M636.49,533.32c-.27-4.89-.59-10.77-.53-15.14h-.16c-1.23,4.11-2.72,8.48-4.53,13.31l-6.35,17h-3.51l-5.81-16.69c-1.71-4.94-3.15-9.47-4.16-13.63h-.11c-.1,4.37-.37,10.25-.69,15.5l-1,15h-4.42l2.5-35.05h5.92l6.13,17c1.49,4.32,2.72,8.17,3.62,11.81h.16c.91-3.54,2.19-7.39,3.79-11.81l6.39-17h5.92l2.24,35.05H637.4Z" transform="translate(-30.52 -40.55)" style="fill:#fff"/><path d="M651.84,537c.11,6.18,4.16,8.73,8.85,8.73a17.28,17.28,0,0,0,7.14-1.3l.8,3.28a21.27,21.27,0,0,1-8.58,1.56c-7.94,0-12.68-5.1-12.68-12.69S652,523,659.46,523c8.43,0,10.67,7.23,10.67,11.85A15.44,15.44,0,0,1,670,537Zm13.75-3.28c.06-2.91-1.22-7.44-6.5-7.44-4.74,0-6.82,4.27-7.19,7.44Z" transform="translate(-30.52 -40.55)" style="fill:#fff"/><path d="M698.21,511.79v30.42c0,2.23.06,4.78.22,6.5h-4.21l-.22-4.37h-.1a9.59,9.59,0,0,1-8.8,4.94c-6.23,0-11-5.15-11-12.79C674,528.11,679.35,523,685.64,523c3.94,0,6.61,1.82,7.78,3.85h.1v-15Zm-4.69,22a7.85,7.85,0,0,0-.21-1.92,6.86,6.86,0,0,0-6.77-5.3c-4.85,0-7.73,4.16-7.73,9.72,0,5.1,2.56,9.31,7.63,9.31a7,7,0,0,0,6.87-5.46,7.81,7.81,0,0,0,.21-2Z" transform="translate(-30.52 -40.55)" style="fill:#fff"/><path d="M711.22,516.47a2.91,2.91,0,0,1-5.81,0,2.82,2.82,0,0,1,2.93-2.86A2.75,2.75,0,0,1,711.22,516.47ZM706,548.71V523.54h4.69v25.17Z" transform="translate(-30.52 -40.55)" style="fill:#fff"/><path d="M732.75,548.71l-.37-3.17h-.16a9.7,9.7,0,0,1-7.89,3.74c-5.22,0-7.88-3.59-7.88-7.23,0-6.08,5.54-9.41,15.51-9.36v-.52c0-2.08-.59-5.82-5.87-5.82a13,13,0,0,0-6.71,1.87l-1.07-3a16.32,16.32,0,0,1,8.48-2.23c7.88,0,9.8,5.25,9.8,10.29v9.42a34.58,34.58,0,0,0,.43,6Zm-.69-12.85c-5.11-.1-10.92.78-10.92,5.67a4.1,4.1,0,0,0,4.42,4.37,6.42,6.42,0,0,0,6.24-4.21,4.68,4.68,0,0,0,.26-1.46Z" transform="translate(-30.52 -40.55)" style="fill:#fff"/><g style="clip-path:url(#clip-path)"><path d="M320.93,379.83H753.31V315.19H320.93a32.32,32.32,0,1,0,0,64.64" transform="translate(-30.52 -40.55)" style="fill:#254b96"/></g><path d="M449.55,365a23.6,23.6,0,0,1-9.49,1.66c-10.13,0-17.75-6.24-17.75-17.73,0-11,7.62-18.41,18.76-18.41a19.75,19.75,0,0,1,8.53,1.56l-1.12,3.69a17.28,17.28,0,0,0-7.25-1.45c-8.42,0-14,5.25-14,14.45,0,8.58,5.07,14.1,13.81,14.1a19.07,19.07,0,0,0,7.57-1.46Z" transform="translate(-30.52 -40.55)" style="fill:#fff"/><path d="M478,353.37c0,9.31-6.61,13.36-12.85,13.36-7,0-12.36-5-12.36-12.94,0-8.43,5.65-13.37,12.79-13.37C473,340.42,478,345.67,478,353.37Zm-20.47.26c0,5.51,3.25,9.67,7.84,9.67s7.83-4.11,7.83-9.77c0-4.27-2.18-9.68-7.73-9.68S457.54,348.85,457.54,353.63Z" transform="translate(-30.52 -40.55)" style="fill:#fff"/><path d="M483.93,347.81c0-2.61-.05-4.74-.22-6.82h4.11l.21,4.06h.16a8.93,8.93,0,0,1,8.1-4.63,7.62,7.62,0,0,1,7.31,5.05h.1a10.36,10.36,0,0,1,2.88-3.28,8.92,8.92,0,0,1,5.7-1.77c3.41,0,8.48,2.19,8.48,10.92v14.82h-4.59V351.91c0-4.83-1.81-7.75-5.59-7.75a6.06,6.06,0,0,0-5.55,4.16,7.52,7.52,0,0,0-.37,2.29v15.55h-4.58V351.08c0-4-1.81-6.92-5.39-6.92a6.83,6.83,0,0,0-6.18,6.82v15.18h-4.58Z" transform="translate(-30.52 -40.55)" style="fill:#fff"/><path d="M550,359.3c0,2.6,0,4.89.21,6.86H546l-.26-4.11h-.11a9.74,9.74,0,0,1-8.53,4.68c-4,0-8.9-2.18-8.9-11V341h4.69v13.94c0,4.78,1.5,8,5.76,8a6.77,6.77,0,0,0,6.18-4.16,6.5,6.5,0,0,0,.43-2.34V341H550Z" transform="translate(-30.52 -40.55)" style="fill:#fff"/><path d="M557.75,347.81c0-2.61,0-4.74-.21-6.82h4.16l.26,4.16h.11a9.52,9.52,0,0,1,8.53-4.73c3.57,0,9.11,2.08,9.11,10.71v15H575V351.65c0-4-1.54-7.43-6-7.43a6.64,6.64,0,0,0-6.29,4.68,6.49,6.49,0,0,0-.32,2.13v15.13h-4.69Z" transform="translate(-30.52 -40.55)" style="fill:#fff"/><path d="M592.56,333.92a2.91,2.91,0,0,1-5.81,0,2.82,2.82,0,0,1,2.93-2.86A2.75,2.75,0,0,1,592.56,333.92Zm-5.23,32.24V341H592v25.17Z" transform="translate(-30.52 -40.55)" style="fill:#fff"/><path d="M618.2,365.23a17.77,17.77,0,0,1-7.41,1.45c-7.78,0-12.85-5.15-12.85-12.84s5.44-13.37,13.86-13.37a16.07,16.07,0,0,1,6.5,1.3l-1.06,3.54a11.15,11.15,0,0,0-5.44-1.2c-5.92,0-9.11,4.27-9.11,9.52,0,5.82,3.83,9.41,8.95,9.41a13.54,13.54,0,0,0,5.76-1.25Z" transform="translate(-30.52 -40.55)" style="fill:#fff"/><path d="M638,366.16,637.6,363h-.16a9.68,9.68,0,0,1-7.89,3.74c-5.22,0-7.89-3.58-7.89-7.22,0-6.09,5.55-9.42,15.51-9.36v-.52c0-2.08-.58-5.83-5.86-5.83a13.16,13.16,0,0,0-6.72,1.87l-1.06-3a16.31,16.31,0,0,1,8.47-2.24c7.89,0,9.81,5.25,9.81,10.3v9.41a34.51,34.51,0,0,0,.43,6Zm-.69-12.84c-5.12-.11-10.93.78-10.93,5.67a4.1,4.1,0,0,0,4.43,4.36,6.4,6.4,0,0,0,6.23-4.21,4.69,4.69,0,0,0,.27-1.45Z" transform="translate(-30.52 -40.55)" style="fill:#fff"/><path d="M667.77,365.23a17.77,17.77,0,0,1-7.41,1.45c-7.78,0-12.85-5.15-12.85-12.84s5.44-13.37,13.86-13.37a16.07,16.07,0,0,1,6.5,1.3l-1.06,3.54a11.15,11.15,0,0,0-5.44-1.2c-5.91,0-9.11,4.27-9.11,9.52,0,5.82,3.83,9.41,9,9.41a13.46,13.46,0,0,0,5.76-1.25Z" transform="translate(-30.52 -40.55)" style="fill:#fff"/><path d="M678.48,333.92a2.91,2.91,0,0,1-5.81,0,2.83,2.83,0,0,1,2.93-2.86A2.75,2.75,0,0,1,678.48,333.92Zm-5.22,32.24V341H678v25.17Z" transform="translate(-30.52 -40.55)" style="fill:#fff"/><path d="M709.08,353.37c0,9.31-6.61,13.36-12.85,13.36-7,0-12.36-5-12.36-12.94,0-8.43,5.65-13.37,12.79-13.37C704.07,340.42,709.08,345.67,709.08,353.37Zm-20.47.26c0,5.51,3.25,9.67,7.83,9.67s7.84-4.11,7.84-9.77c0-4.27-2.19-9.68-7.73-9.68S688.61,348.85,688.61,353.63Zm14.87-23.51-6.5,7.44h-3.36l4.69-7.44Z" transform="translate(-30.52 -40.55)" style="fill:#fff"/><path d="M715,347.81c0-2.61,0-4.74-.21-6.82h4.16l.27,4.16h.1a9.54,9.54,0,0,1,8.53-4.73c3.57,0,9.11,2.08,9.11,10.71v15h-4.69V351.65c0-4-1.54-7.43-6-7.43A6.64,6.64,0,0,0,720,348.9a6.49,6.49,0,0,0-.32,2.13v15.13H715Z" transform="translate(-30.52 -40.55)" style="fill:#fff"/><g style="clip-path:url(#clip-path)"><path d="M320.93,196.74H753.31V132.1H320.93a32.32,32.32,0,1,0,0,64.64" transform="translate(-30.52 -40.55)" style="fill:#009447"/></g><path d="M552,147.13h19.35v3.8H556.66v11.65h13.59v3.74H556.66v15.86H552Z" transform="translate(-30.52 -40.55)" style="fill:#fff"/><path d="M581.66,149.94a2.91,2.91,0,0,1-5.81,0,2.82,2.82,0,0,1,2.93-2.86A2.75,2.75,0,0,1,581.66,149.94Zm-5.23,32.24V157h4.69v25.17Z" transform="translate(-30.52 -40.55)" style="fill:#fff"/><path d="M588.9,163.82c0-2.6,0-4.73-.21-6.81h4.16l.27,4.16h.1a9.54,9.54,0,0,1,8.53-4.73c3.57,0,9.11,2.08,9.11,10.71v15h-4.69V167.67c0-4-1.54-7.43-6-7.43a6.62,6.62,0,0,0-6.28,4.68,6.23,6.23,0,0,0-.33,2.13v15.13H588.9Z" transform="translate(-30.52 -40.55)" style="fill:#fff"/><path d="M632.77,182.18,632.4,179h-.16a9.68,9.68,0,0,1-7.89,3.74c-5.22,0-7.89-3.58-7.89-7.22,0-6.09,5.54-9.42,15.51-9.37v-.52c0-2.08-.58-5.82-5.86-5.82a13.16,13.16,0,0,0-6.72,1.87l-1.06-3a16.22,16.22,0,0,1,8.47-2.24c7.89,0,9.81,5.25,9.81,10.3v9.41a34.51,34.51,0,0,0,.43,6Zm-.69-12.84c-5.12-.11-10.93.78-10.93,5.67a4.1,4.1,0,0,0,4.43,4.36,6.4,6.4,0,0,0,6.23-4.21,4.7,4.7,0,0,0,.27-1.46Z" transform="translate(-30.52 -40.55)" style="fill:#fff"/><path d="M644.18,163.82c0-2.6,0-4.73-.21-6.81h4.15l.27,4.16h.11a9.52,9.52,0,0,1,8.53-4.73c3.57,0,9.11,2.08,9.11,10.71v15h-4.69V167.67c0-4-1.55-7.43-6-7.43a6.64,6.64,0,0,0-6.29,4.68,6.49,6.49,0,0,0-.32,2.13v15.13h-4.69Z" transform="translate(-30.52 -40.55)" style="fill:#fff"/><path d="M670.83,179.53l11.67-14.82c1.12-1.35,2.19-2.55,3.36-3.9v-.11h-14V157h19.66l0,2.86L680,174.49c-1.07,1.4-2.13,2.65-3.31,3.95v.1h15.09v3.64H670.83Z" transform="translate(-30.52 -40.55)" style="fill:#fff"/><path d="M710.86,182.18l-.37-3.17h-.16a9.68,9.68,0,0,1-7.89,3.74c-5.23,0-7.89-3.58-7.89-7.22,0-6.09,5.54-9.42,15.51-9.37v-.52c0-2.08-.59-5.82-5.86-5.82a13.13,13.13,0,0,0-6.72,1.87l-1.06-3a16.22,16.22,0,0,1,8.47-2.24c7.89,0,9.81,5.25,9.81,10.3v9.41a34.57,34.57,0,0,0,.42,6Zm-.69-12.84c-5.12-.11-10.93.78-10.93,5.67a4.1,4.1,0,0,0,4.42,4.36,6.42,6.42,0,0,0,6.24-4.21,4.7,4.7,0,0,0,.27-1.46Z" transform="translate(-30.52 -40.55)" style="fill:#fff"/><path d="M721.63,177.5a12.44,12.44,0,0,0,6.18,1.82c3.41,0,5-1.66,5-3.74s-1.33-3.38-4.8-4.63c-4.63-1.61-6.82-4.11-6.82-7.13,0-4,3.36-7.38,8.9-7.38a13.19,13.19,0,0,1,6.35,1.56l-1.18,3.33a10.15,10.15,0,0,0-5.27-1.46c-2.78,0-4.32,1.56-4.32,3.43,0,2.08,1.54,3,4.9,4.27,4.48,1.66,6.77,3.85,6.77,7.59,0,4.42-3.52,7.54-9.65,7.54a15,15,0,0,1-7.24-1.71Z" transform="translate(-30.52 -40.55)" style="fill:#fff"/><g style="clip-path:url(#clip-path)"><path d="M459.36,105.19H30.52V40.55H459.36a32.32,32.32,0,0,1,0,64.64" transform="translate(-30.52 -40.55)" style="fill:#d1b34a"/></g><path d="M52.15,56.39V91.44H47.51v-35Z" transform="translate(-30.52 -40.55)" style="fill:#fff"/><path d="M67.08,60.24H56.15V56.39h26.6v3.85h-11v31.2H67.08Z" transform="translate(-30.52 -40.55)" style="fill:#fff"/><g style="clip-path:url(#clip-path)"><path d="M459.9,288.28H30.52V223.65H459.9a32.32,32.32,0,1,1,0,64.63" transform="translate(-30.52 -40.55)" style="fill:#f15a2c"/></g><path d="M65.74,258.18h-14v12.64H67.33v3.8H47.13V239.57H66.54v3.79H51.77v11.08h14Z" transform="translate(-30.52 -40.55)" style="fill:#fff"/><path d="M73.2,256.26c0-2.6,0-4.73-.21-6.81h4.1l.21,4.05h.16a8.93,8.93,0,0,1,8.1-4.63,7.62,7.62,0,0,1,7.31,5H93a10.59,10.59,0,0,1,2.88-3.28,9,9,0,0,1,5.7-1.77c3.42,0,8.48,2.19,8.48,10.93v14.82h-4.58V260.37c0-4.84-1.82-7.75-5.6-7.75a6,6,0,0,0-5.54,4.16,7.17,7.17,0,0,0-.38,2.29v15.55H89.35V259.54c0-4-1.81-6.92-5.38-6.92a6.36,6.36,0,0,0-5.81,4.58,6,6,0,0,0-.38,2.23v15.19H73.2Z" transform="translate(-30.52 -40.55)" style="fill:#fff"/><path d="M117.65,257.66c0-3.22-.1-5.82-.21-8.21h4.21l.21,4.31H122a10.22,10.22,0,0,1,9.17-4.89c6.23,0,10.92,5.15,10.92,12.8,0,9.05-5.64,13.52-11.72,13.52a9.12,9.12,0,0,1-7.94-3.95h-.11v13.67h-4.64Zm4.64,6.71a10.58,10.58,0,0,0,.21,1.87,7.21,7.21,0,0,0,7,5.36c5,0,7.83-4,7.83-9.72,0-5.05-2.71-9.36-7.67-9.36a7.44,7.44,0,0,0-7.09,5.66,7.33,7.33,0,0,0-.32,1.88Z" transform="translate(-30.52 -40.55)" style="fill:#fff"/><path d="M148,257.3c0-3,0-5.51-.21-7.85h4.1l.16,4.94h.22a7.71,7.71,0,0,1,7.14-5.52,5.39,5.39,0,0,1,1.33.16v4.32a6.87,6.87,0,0,0-1.6-.16c-3.3,0-5.65,2.45-6.29,5.88a13.24,13.24,0,0,0-.21,2.13v13.42H148Z" transform="translate(-30.52 -40.55)" style="fill:#fff"/><path d="M167.54,262.86c.11,6.19,4.16,8.74,8.85,8.74a17.25,17.25,0,0,0,7.14-1.3l.8,3.28a21.45,21.45,0,0,1-8.58,1.56c-7.94,0-12.68-5.1-12.68-12.69s4.58-13.58,12.1-13.58c8.42,0,10.66,7.23,10.66,11.86a17.25,17.25,0,0,1-.16,2.13Zm13.76-3.27c0-2.91-1.23-7.44-6.51-7.44-4.74,0-6.82,4.27-7.19,7.44Z" transform="translate(-30.52 -40.55)" style="fill:#fff"/><path d="M191.64,256.26c0-2.6-.06-4.73-.22-6.81h4.16l.27,4.16h.1a9.54,9.54,0,0,1,8.53-4.74c3.57,0,9.12,2.08,9.12,10.72v15h-4.69V260.11c0-4.06-1.55-7.44-6-7.44a6.64,6.64,0,0,0-6.29,4.68,6.24,6.24,0,0,0-.32,2.13v15.14h-4.69Z" transform="translate(-30.52 -40.55)" style="fill:#fff"/><path d="M243.5,237.69v30.43c0,2.23.05,4.78.21,6.5H239.5l-.21-4.37h-.11a9.57,9.57,0,0,1-8.79,4.94c-6.24,0-11-5.15-11-12.79,0-8.38,5.28-13.53,11.57-13.53,3.94,0,6.61,1.83,7.78,3.85h.11v-15Zm-4.69,22a7.85,7.85,0,0,0-.21-1.92,6.88,6.88,0,0,0-6.77-5.31c-4.85,0-7.73,4.16-7.73,9.73,0,5.09,2.56,9.31,7.62,9.31A7,7,0,0,0,238.6,266a7.81,7.81,0,0,0,.21-2Z" transform="translate(-30.52 -40.55)" style="fill:#fff"/><path d="M253.89,262.86c.11,6.19,4.16,8.74,8.85,8.74a17.25,17.25,0,0,0,7.14-1.3l.8,3.28a21.45,21.45,0,0,1-8.58,1.56c-7.94,0-12.68-5.1-12.68-12.69s4.58-13.58,12.1-13.58c8.42,0,10.66,7.23,10.66,11.86a17.25,17.25,0,0,1-.16,2.13Zm13.76-3.27c.05-2.91-1.23-7.44-6.51-7.44-4.74,0-6.82,4.27-7.19,7.44Z" transform="translate(-30.52 -40.55)" style="fill:#fff"/><path d="M300.27,237.69v30.43c0,2.23.05,4.78.21,6.5h-4.21l-.21-4.37H296a9.58,9.58,0,0,1-8.8,4.94c-6.23,0-11-5.15-11-12.79-.05-8.38,5.28-13.53,11.57-13.53,3.94,0,6.61,1.83,7.78,3.85h.11v-15Zm-4.69,22a7.86,7.86,0,0,0-.22-1.92,6.86,6.86,0,0,0-6.77-5.31c-4.85,0-7.72,4.16-7.72,9.73,0,5.09,2.55,9.31,7.62,9.31a7,7,0,0,0,6.87-5.46,7.8,7.8,0,0,0,.22-2Z" transform="translate(-30.52 -40.55)" style="fill:#fff"/><path d="M331.4,261.82c0,9.31-6.61,13.37-12.85,13.37-7,0-12.37-5-12.37-12.95,0-8.42,5.65-13.37,12.8-13.37C326.38,248.87,331.4,254.13,331.4,261.82Zm-20.47.26c0,5.52,3.25,9.68,7.83,9.68s7.84-4.11,7.84-9.78c0-4.26-2.19-9.67-7.73-9.67S310.93,257.3,310.93,262.08Z" transform="translate(-30.52 -40.55)" style="fill:#fff"/><path d="M337.31,257.3c0-3-.05-5.51-.21-7.85h4.1l.16,4.94h.22a7.71,7.71,0,0,1,7.14-5.52,5.33,5.33,0,0,1,1.33.16v4.32a6.87,6.87,0,0,0-1.6-.16c-3.3,0-5.65,2.45-6.29,5.88a13.24,13.24,0,0,0-.21,2.13v13.42h-4.64Z" transform="translate(-30.52 -40.55)" style="fill:#fff"/><path d="M356.82,262.86c.11,6.19,4.16,8.74,8.85,8.74a17.28,17.28,0,0,0,7.14-1.3l.8,3.28a21.49,21.49,0,0,1-8.58,1.56c-7.94,0-12.69-5.1-12.69-12.69s4.59-13.58,12.1-13.58c8.42,0,10.66,7.23,10.66,11.86a15.46,15.46,0,0,1-.16,2.13Zm13.75-3.27c.06-2.91-1.22-7.44-6.5-7.44-4.74,0-6.82,4.27-7.19,7.44Z" transform="translate(-30.52 -40.55)" style="fill:#fff"/><path d="M380.27,269.94a12.58,12.58,0,0,0,6.19,1.82c3.41,0,5-1.67,5-3.75s-1.34-3.38-4.8-4.63c-4.64-1.61-6.82-4.1-6.82-7.12,0-4.06,3.36-7.39,8.9-7.39a13,13,0,0,1,6.34,1.57l-1.17,3.32a10.27,10.27,0,0,0-5.28-1.45c-2.77,0-4.31,1.56-4.31,3.43,0,2.08,1.54,3,4.9,4.26,4.48,1.67,6.77,3.85,6.77,7.6,0,4.42-3.52,7.54-9.65,7.54a15,15,0,0,1-7.25-1.72Z" transform="translate(-30.52 -40.55)" style="fill:#fff"/><g style="clip-path:url(#clip-path-7)"><path d="M461.9,471.38H32.52V406.74H461.9a32.32,32.32,0,1,1,0,64.64" transform="translate(-30.52 -40.55)" style="fill:#be1e2d"/></g><path d="M74.71,457.13a23.3,23.3,0,0,1-9.48,1.67c-10.13,0-17.75-6.24-17.75-17.73,0-11,7.62-18.41,18.76-18.41a19.59,19.59,0,0,1,8.53,1.56l-1.12,3.69a17.3,17.3,0,0,0-7.25-1.46c-8.42,0-14,5.25-14,14.46,0,8.58,5.06,14.09,13.81,14.09a19,19,0,0,0,7.56-1.45Z" transform="translate(-30.52 -40.55)" style="fill:#fff"/><path d="M103.18,445.49c0,9.3-6.61,13.36-12.85,13.36-7,0-12.36-5-12.36-13,0-8.42,5.65-13.36,12.79-13.36C98.17,432.54,103.18,437.79,103.18,445.49Zm-20.47.26c0,5.51,3.25,9.67,7.83,9.67s7.84-4.11,7.84-9.78c0-4.26-2.19-9.67-7.73-9.67S82.71,441,82.71,445.75Z" transform="translate(-30.52 -40.55)" style="fill:#fff"/><path d="M109.09,439.92c0-2.6,0-4.73-.21-6.81H113l.27,4.16h.1a9.54,9.54,0,0,1,8.53-4.73c3.57,0,9.11,2.08,9.11,10.71v15h-4.69V443.77c0-4.06-1.54-7.44-6-7.44a6.73,6.73,0,0,0-6.61,6.82v15.13h-4.69Z" transform="translate(-30.52 -40.55)" style="fill:#fff"/><path d="M138,453.6a12.54,12.54,0,0,0,6.18,1.82c3.41,0,5-1.67,5-3.75s-1.33-3.38-4.8-4.62c-4.63-1.62-6.82-4.11-6.82-7.13,0-4.06,3.36-7.38,8.9-7.38a13.12,13.12,0,0,1,6.34,1.56l-1.17,3.33a10.15,10.15,0,0,0-5.27-1.46c-2.78,0-4.32,1.56-4.32,3.43,0,2.08,1.54,3,4.9,4.27,4.48,1.66,6.77,3.84,6.77,7.59,0,4.42-3.52,7.54-9.65,7.54a15,15,0,0,1-7.24-1.72Z" transform="translate(-30.52 -40.55)" style="fill:#fff"/><path d="M181.37,451.41c0,2.6,0,4.89.21,6.87h-4.15l-.27-4.11h-.11a9.72,9.72,0,0,1-8.52,4.68c-4.05,0-8.9-2.18-8.9-11V433.11h4.69v13.94c0,4.78,1.49,8,5.75,8a6.76,6.76,0,0,0,6.18-4.16,6.42,6.42,0,0,0,.43-2.34V433.11h4.69Z" transform="translate(-30.52 -40.55)" style="fill:#fff"/><path d="M189.15,421.36h4.7v36.92h-4.7Z" transform="translate(-30.52 -40.55)" style="fill:#fff"/><path d="M207.38,425.88v7.23h6.72v3.48h-6.72v13.58c0,3.12.91,4.88,3.52,4.88a10.53,10.53,0,0,0,2.72-.31l.21,3.43a11.52,11.52,0,0,1-4.15.63,6.59,6.59,0,0,1-5.07-1.93c-1.33-1.35-1.81-3.58-1.81-6.55V436.59h-4v-3.48h4v-6Z" transform="translate(-30.52 -40.55)" style="fill:#fff"/><path d="M242.46,445.49c0,9.3-6.61,13.36-12.85,13.36-7,0-12.36-5-12.36-13,0-8.42,5.64-13.36,12.79-13.36C237.45,432.54,242.46,437.79,242.46,445.49Zm-20.47.26c0,5.51,3.25,9.67,7.83,9.67s7.84-4.11,7.84-9.78c0-4.26-2.19-9.67-7.73-9.67S222,441,222,445.75Z" transform="translate(-30.52 -40.55)" style="fill:#fff"/><path d="M248.37,441c0-3-.05-5.51-.21-7.85h4.1l.16,4.94h.22a7.71,7.71,0,0,1,7.14-5.51,5.35,5.35,0,0,1,1.33.15V437a7.45,7.45,0,0,0-1.6-.16c-3.3,0-5.65,2.45-6.29,5.88a13.24,13.24,0,0,0-.21,2.13v13.42h-4.64Z" transform="translate(-30.52 -40.55)" style="fill:#fff"/><path d="M275.5,422.24l-6.5,7.44h-3.36l4.69-7.44Zm-9.54,36V433.11h4.69v25.17Z" transform="translate(-30.52 -40.55)" style="fill:#fff"/><path d="M292.72,458.28l-.37-3.17h-.16a9.7,9.7,0,0,1-7.89,3.74c-5.22,0-7.89-3.59-7.89-7.23,0-6.08,5.54-9.41,15.51-9.36v-.52c0-2.08-.59-5.82-5.86-5.82a13.13,13.13,0,0,0-6.72,1.87l-1.06-3a16.31,16.31,0,0,1,8.47-2.23c7.89,0,9.81,5.25,9.81,10.29v9.42a34.64,34.64,0,0,0,.42,6ZM292,445.43c-5.12-.1-10.93.78-10.93,5.67a4.1,4.1,0,0,0,4.42,4.37,6.42,6.42,0,0,0,6.24-4.21,4.7,4.7,0,0,0,.27-1.46Z" transform="translate(-30.52 -40.55)" style="fill:#fff"/></svg>